<mxfile host="app.diagrams.net" modified="2021-11-11T21:17:07.782Z" agent="5.0 (X11; Linux x86_64) AppleWebKit/537.36 (KHTML, like Gecko) Chrome/95.0.4638.69 Safari/537.36" etag="bkXeOAl9Pzu8uO_3PRyr" version="15.7.3" type="github">
  <diagram id="2IcoOhurChXCMeqDqQPT" name="Page-1">
    <mxGraphModel dx="2746" dy="932" grid="1" gridSize="10" guides="1" tooltips="1" connect="1" arrows="1" fold="1" page="1" pageScale="1" pageWidth="850" pageHeight="1100" math="0" shadow="0">
      <root>
        <mxCell id="0" />
        <mxCell id="1" parent="0" />
        <mxCell id="OnO2KZw0QtRSp7MpEYTN-207" style="edgeStyle=orthogonalEdgeStyle;rounded=0;orthogonalLoop=1;jettySize=auto;html=1;entryX=0.5;entryY=0;entryDx=0;entryDy=0;entryPerimeter=0;fontSize=18;" edge="1" parent="1" source="OnO2KZw0QtRSp7MpEYTN-1" target="OnO2KZw0QtRSp7MpEYTN-2">
          <mxGeometry relative="1" as="geometry" />
        </mxCell>
        <mxCell id="OnO2KZw0QtRSp7MpEYTN-1" value="&lt;font style=&quot;font-size: 14px&quot;&gt;Start&lt;br&gt;Drive&lt;/font&gt;" style="strokeWidth=2;html=1;shape=mxgraph.flowchart.start_1;whiteSpace=wrap;" vertex="1" parent="1">
          <mxGeometry x="375" y="20" width="100" height="60" as="geometry" />
        </mxCell>
        <mxCell id="OnO2KZw0QtRSp7MpEYTN-210" style="edgeStyle=orthogonalEdgeStyle;rounded=0;orthogonalLoop=1;jettySize=auto;html=1;exitX=0;exitY=0.5;exitDx=0;exitDy=0;exitPerimeter=0;entryX=0.5;entryY=0;entryDx=0;entryDy=0;entryPerimeter=0;fontSize=18;" edge="1" parent="1" source="OnO2KZw0QtRSp7MpEYTN-2" target="OnO2KZw0QtRSp7MpEYTN-191">
          <mxGeometry relative="1" as="geometry" />
        </mxCell>
        <mxCell id="OnO2KZw0QtRSp7MpEYTN-2" value="&lt;font style=&quot;font-size: 14px&quot;&gt;is the golden in&lt;br&gt;the&amp;nbsp;&lt;br&gt;range of distance&lt;br&gt;&amp;nbsp;and angle?&lt;/font&gt;" style="strokeWidth=2;html=1;shape=mxgraph.flowchart.decision;whiteSpace=wrap;" vertex="1" parent="1">
          <mxGeometry x="353" y="110" width="145" height="140" as="geometry" />
        </mxCell>
        <mxCell id="OnO2KZw0QtRSp7MpEYTN-3" value="" style="endArrow=classic;html=1;rounded=0;" edge="1" parent="1" target="OnO2KZw0QtRSp7MpEYTN-6">
          <mxGeometry width="50" height="50" relative="1" as="geometry">
            <mxPoint x="610" y="180" as="sourcePoint" />
            <mxPoint x="740" y="200" as="targetPoint" />
          </mxGeometry>
        </mxCell>
        <mxCell id="OnO2KZw0QtRSp7MpEYTN-4" value="" style="endArrow=none;html=1;rounded=0;" edge="1" parent="1">
          <mxGeometry width="50" height="50" relative="1" as="geometry">
            <mxPoint x="498" y="179.5" as="sourcePoint" />
            <mxPoint x="610" y="180" as="targetPoint" />
          </mxGeometry>
        </mxCell>
        <mxCell id="OnO2KZw0QtRSp7MpEYTN-5" value="&lt;font style=&quot;font-size: 18px&quot;&gt;YES&lt;/font&gt;" style="text;html=1;align=center;verticalAlign=middle;resizable=0;points=[];autosize=1;strokeColor=none;fillColor=none;" vertex="1" parent="1">
          <mxGeometry x="540" y="150" width="50" height="20" as="geometry" />
        </mxCell>
        <mxCell id="OnO2KZw0QtRSp7MpEYTN-171" style="edgeStyle=orthogonalEdgeStyle;rounded=0;orthogonalLoop=1;jettySize=auto;html=1;exitX=1;exitY=0.5;exitDx=0;exitDy=0;exitPerimeter=0;entryX=0.5;entryY=0;entryDx=0;entryDy=0;fontSize=14;" edge="1" parent="1" source="OnO2KZw0QtRSp7MpEYTN-6" target="OnO2KZw0QtRSp7MpEYTN-169">
          <mxGeometry relative="1" as="geometry" />
        </mxCell>
        <mxCell id="OnO2KZw0QtRSp7MpEYTN-185" style="edgeStyle=orthogonalEdgeStyle;rounded=0;orthogonalLoop=1;jettySize=auto;html=1;exitX=0;exitY=0.5;exitDx=0;exitDy=0;exitPerimeter=0;entryX=0.5;entryY=0;entryDx=0;entryDy=0;fontSize=18;" edge="1" parent="1" source="OnO2KZw0QtRSp7MpEYTN-6" target="OnO2KZw0QtRSp7MpEYTN-184">
          <mxGeometry relative="1" as="geometry" />
        </mxCell>
        <mxCell id="OnO2KZw0QtRSp7MpEYTN-6" value="&lt;font style=&quot;font-size: 18px&quot;&gt;If the silver near ?&lt;/font&gt;" style="strokeWidth=2;html=1;shape=mxgraph.flowchart.decision;whiteSpace=wrap;" vertex="1" parent="1">
          <mxGeometry x="550" y="210" width="125" height="120" as="geometry" />
        </mxCell>
        <mxCell id="OnO2KZw0QtRSp7MpEYTN-167" value="&lt;font style=&quot;font-size: 18px&quot;&gt;NO&lt;/font&gt;" style="text;html=1;align=center;verticalAlign=middle;resizable=0;points=[];autosize=1;strokeColor=none;fillColor=none;fontSize=14;" vertex="1" parent="1">
          <mxGeometry x="760" y="240" width="40" height="20" as="geometry" />
        </mxCell>
        <mxCell id="OnO2KZw0QtRSp7MpEYTN-175" style="edgeStyle=orthogonalEdgeStyle;rounded=0;orthogonalLoop=1;jettySize=auto;html=1;exitX=0.5;exitY=1;exitDx=0;exitDy=0;entryX=0.5;entryY=0;entryDx=0;entryDy=0;entryPerimeter=0;fontSize=18;" edge="1" parent="1" source="OnO2KZw0QtRSp7MpEYTN-169" target="OnO2KZw0QtRSp7MpEYTN-172">
          <mxGeometry relative="1" as="geometry" />
        </mxCell>
        <mxCell id="OnO2KZw0QtRSp7MpEYTN-169" value="&lt;font style=&quot;font-size: 18px&quot;&gt;Filter the nearest golden token detected in the rang&lt;/font&gt;" style="rounded=1;whiteSpace=wrap;html=1;absoluteArcSize=1;arcSize=14;strokeWidth=2;fontSize=14;" vertex="1" parent="1">
          <mxGeometry x="820" y="350" width="220" height="100" as="geometry" />
        </mxCell>
        <mxCell id="OnO2KZw0QtRSp7MpEYTN-176" style="edgeStyle=orthogonalEdgeStyle;rounded=0;orthogonalLoop=1;jettySize=auto;html=1;fontSize=18;" edge="1" parent="1" source="OnO2KZw0QtRSp7MpEYTN-172">
          <mxGeometry relative="1" as="geometry">
            <mxPoint x="1160" y="710" as="targetPoint" />
            <Array as="points">
              <mxPoint x="1160" y="575" />
              <mxPoint x="1160" y="700" />
            </Array>
          </mxGeometry>
        </mxCell>
        <mxCell id="OnO2KZw0QtRSp7MpEYTN-180" style="edgeStyle=orthogonalEdgeStyle;rounded=0;orthogonalLoop=1;jettySize=auto;html=1;fontSize=18;" edge="1" parent="1" source="OnO2KZw0QtRSp7MpEYTN-172">
          <mxGeometry relative="1" as="geometry">
            <mxPoint x="710" y="700" as="targetPoint" />
          </mxGeometry>
        </mxCell>
        <mxCell id="OnO2KZw0QtRSp7MpEYTN-172" value="&lt;font style=&quot;font-size: 18px&quot;&gt;If the nearest&lt;br&gt;golden dist.&lt;br&gt;left&amp;gt;right&lt;/font&gt;" style="strokeWidth=2;html=1;shape=mxgraph.flowchart.decision;whiteSpace=wrap;fontSize=14;" vertex="1" parent="1">
          <mxGeometry x="825" y="500" width="210" height="150" as="geometry" />
        </mxCell>
        <mxCell id="OnO2KZw0QtRSp7MpEYTN-177" value="move left until being out of range" style="rounded=1;whiteSpace=wrap;html=1;fontSize=18;" vertex="1" parent="1">
          <mxGeometry x="1060" y="710" width="210" height="60" as="geometry" />
        </mxCell>
        <mxCell id="OnO2KZw0QtRSp7MpEYTN-178" value="move right until being out of range" style="rounded=1;whiteSpace=wrap;html=1;fontSize=18;" vertex="1" parent="1">
          <mxGeometry x="615" y="700" width="210" height="60" as="geometry" />
        </mxCell>
        <mxCell id="OnO2KZw0QtRSp7MpEYTN-181" value="YES" style="text;html=1;align=center;verticalAlign=middle;resizable=0;points=[];autosize=1;strokeColor=none;fillColor=none;fontSize=18;" vertex="1" parent="1">
          <mxGeometry x="1065" y="535" width="50" height="30" as="geometry" />
        </mxCell>
        <mxCell id="OnO2KZw0QtRSp7MpEYTN-182" value="NO" style="text;html=1;align=center;verticalAlign=middle;resizable=0;points=[];autosize=1;strokeColor=none;fillColor=none;fontSize=18;" vertex="1" parent="1">
          <mxGeometry x="730" y="535" width="40" height="30" as="geometry" />
        </mxCell>
        <mxCell id="OnO2KZw0QtRSp7MpEYTN-188" style="edgeStyle=orthogonalEdgeStyle;rounded=0;orthogonalLoop=1;jettySize=auto;html=1;exitX=0.5;exitY=1;exitDx=0;exitDy=0;entryX=0.5;entryY=0;entryDx=0;entryDy=0;fontSize=18;" edge="1" parent="1" source="OnO2KZw0QtRSp7MpEYTN-184" target="OnO2KZw0QtRSp7MpEYTN-186">
          <mxGeometry relative="1" as="geometry" />
        </mxCell>
        <mxCell id="OnO2KZw0QtRSp7MpEYTN-184" value="Head to the silver&amp;nbsp;" style="rounded=1;whiteSpace=wrap;html=1;absoluteArcSize=1;arcSize=14;strokeWidth=2;fontSize=18;" vertex="1" parent="1">
          <mxGeometry x="375.5" y="360" width="134.5" height="40" as="geometry" />
        </mxCell>
        <mxCell id="OnO2KZw0QtRSp7MpEYTN-189" style="edgeStyle=orthogonalEdgeStyle;rounded=0;orthogonalLoop=1;jettySize=auto;html=1;exitX=0.5;exitY=1;exitDx=0;exitDy=0;entryX=0.5;entryY=0;entryDx=0;entryDy=0;fontSize=18;" edge="1" parent="1" source="OnO2KZw0QtRSp7MpEYTN-186" target="OnO2KZw0QtRSp7MpEYTN-187">
          <mxGeometry relative="1" as="geometry" />
        </mxCell>
        <mxCell id="OnO2KZw0QtRSp7MpEYTN-186" value="Align left and right" style="rounded=1;whiteSpace=wrap;html=1;absoluteArcSize=1;arcSize=14;strokeWidth=2;fontSize=18;" vertex="1" parent="1">
          <mxGeometry x="375" y="460" width="134.5" height="40" as="geometry" />
        </mxCell>
        <mxCell id="OnO2KZw0QtRSp7MpEYTN-187" value="Grab action" style="rounded=1;whiteSpace=wrap;html=1;absoluteArcSize=1;arcSize=14;strokeWidth=2;fontSize=18;" vertex="1" parent="1">
          <mxGeometry x="375" y="550" width="134.5" height="40" as="geometry" />
        </mxCell>
        <mxCell id="OnO2KZw0QtRSp7MpEYTN-190" value="YES" style="text;html=1;align=center;verticalAlign=middle;resizable=0;points=[];autosize=1;strokeColor=none;fillColor=none;fontSize=18;" vertex="1" parent="1">
          <mxGeometry x="475" y="240" width="50" height="30" as="geometry" />
        </mxCell>
        <mxCell id="OnO2KZw0QtRSp7MpEYTN-200" style="edgeStyle=orthogonalEdgeStyle;rounded=0;orthogonalLoop=1;jettySize=auto;html=1;fontSize=18;" edge="1" parent="1" source="OnO2KZw0QtRSp7MpEYTN-191">
          <mxGeometry relative="1" as="geometry">
            <mxPoint x="270" y="290" as="targetPoint" />
          </mxGeometry>
        </mxCell>
        <mxCell id="OnO2KZw0QtRSp7MpEYTN-203" style="edgeStyle=orthogonalEdgeStyle;rounded=0;orthogonalLoop=1;jettySize=auto;html=1;fontSize=18;" edge="1" parent="1" source="OnO2KZw0QtRSp7MpEYTN-191">
          <mxGeometry relative="1" as="geometry">
            <mxPoint x="70" y="360" as="targetPoint" />
            <Array as="points">
              <mxPoint x="70" y="290" />
            </Array>
          </mxGeometry>
        </mxCell>
        <mxCell id="OnO2KZw0QtRSp7MpEYTN-191" value="&lt;font style=&quot;font-size: 18px&quot;&gt;If the silver near ?&lt;/font&gt;" style="strokeWidth=2;html=1;shape=mxgraph.flowchart.decision;whiteSpace=wrap;" vertex="1" parent="1">
          <mxGeometry x="90" y="230" width="125" height="120" as="geometry" />
        </mxCell>
        <mxCell id="OnO2KZw0QtRSp7MpEYTN-192" style="edgeStyle=orthogonalEdgeStyle;rounded=0;orthogonalLoop=1;jettySize=auto;html=1;exitX=0.5;exitY=1;exitDx=0;exitDy=0;entryX=0.5;entryY=0;entryDx=0;entryDy=0;fontSize=18;" edge="1" parent="1" source="OnO2KZw0QtRSp7MpEYTN-193" target="OnO2KZw0QtRSp7MpEYTN-195">
          <mxGeometry relative="1" as="geometry" />
        </mxCell>
        <mxCell id="OnO2KZw0QtRSp7MpEYTN-193" value="Head to the silver&amp;nbsp;" style="rounded=1;whiteSpace=wrap;html=1;absoluteArcSize=1;arcSize=14;strokeWidth=2;fontSize=18;" vertex="1" parent="1">
          <mxGeometry x="210.5" y="360" width="134.5" height="40" as="geometry" />
        </mxCell>
        <mxCell id="OnO2KZw0QtRSp7MpEYTN-194" style="edgeStyle=orthogonalEdgeStyle;rounded=0;orthogonalLoop=1;jettySize=auto;html=1;exitX=0.5;exitY=1;exitDx=0;exitDy=0;entryX=0.5;entryY=0;entryDx=0;entryDy=0;fontSize=18;" edge="1" parent="1" source="OnO2KZw0QtRSp7MpEYTN-195" target="OnO2KZw0QtRSp7MpEYTN-196">
          <mxGeometry relative="1" as="geometry" />
        </mxCell>
        <mxCell id="OnO2KZw0QtRSp7MpEYTN-195" value="Align left and right" style="rounded=1;whiteSpace=wrap;html=1;absoluteArcSize=1;arcSize=14;strokeWidth=2;fontSize=18;" vertex="1" parent="1">
          <mxGeometry x="210" y="460" width="134.5" height="40" as="geometry" />
        </mxCell>
        <mxCell id="OnO2KZw0QtRSp7MpEYTN-196" value="Grab action" style="rounded=1;whiteSpace=wrap;html=1;absoluteArcSize=1;arcSize=14;strokeWidth=2;fontSize=18;" vertex="1" parent="1">
          <mxGeometry x="210" y="550" width="134.5" height="40" as="geometry" />
        </mxCell>
        <mxCell id="OnO2KZw0QtRSp7MpEYTN-199" value="" style="endArrow=classic;html=1;rounded=0;fontSize=18;entryX=0.428;entryY=0.033;entryDx=0;entryDy=0;entryPerimeter=0;" edge="1" parent="1" target="OnO2KZw0QtRSp7MpEYTN-193">
          <mxGeometry width="50" height="50" relative="1" as="geometry">
            <mxPoint x="268" y="290" as="sourcePoint" />
            <mxPoint x="320" y="250" as="targetPoint" />
          </mxGeometry>
        </mxCell>
        <mxCell id="OnO2KZw0QtRSp7MpEYTN-201" value="YES" style="text;html=1;align=center;verticalAlign=middle;resizable=0;points=[];autosize=1;strokeColor=none;fillColor=none;fontSize=18;" vertex="1" parent="1">
          <mxGeometry x="210.5" y="260" width="50" height="30" as="geometry" />
        </mxCell>
        <mxCell id="OnO2KZw0QtRSp7MpEYTN-202" value="Drive" style="rounded=1;whiteSpace=wrap;html=1;absoluteArcSize=1;arcSize=14;strokeWidth=2;fontSize=18;" vertex="1" parent="1">
          <mxGeometry y="360" width="134.5" height="40" as="geometry" />
        </mxCell>
        <mxCell id="OnO2KZw0QtRSp7MpEYTN-205" value="" style="endArrow=none;html=1;rounded=0;fontSize=18;" edge="1" parent="1">
          <mxGeometry width="50" height="50" relative="1" as="geometry">
            <mxPoint x="70" y="480" as="sourcePoint" />
            <mxPoint x="70" y="400" as="targetPoint" />
          </mxGeometry>
        </mxCell>
        <mxCell id="OnO2KZw0QtRSp7MpEYTN-206" value="" style="endArrow=none;html=1;rounded=0;fontSize=18;" edge="1" parent="1">
          <mxGeometry width="50" height="50" relative="1" as="geometry">
            <mxPoint x="-140" y="480" as="sourcePoint" />
            <mxPoint x="70" y="480" as="targetPoint" />
          </mxGeometry>
        </mxCell>
        <mxCell id="OnO2KZw0QtRSp7MpEYTN-208" value="" style="endArrow=none;html=1;rounded=0;fontSize=18;" edge="1" parent="1">
          <mxGeometry width="50" height="50" relative="1" as="geometry">
            <mxPoint x="-140" y="480" as="sourcePoint" />
            <mxPoint x="-140" y="90" as="targetPoint" />
          </mxGeometry>
        </mxCell>
        <mxCell id="OnO2KZw0QtRSp7MpEYTN-209" value="" style="endArrow=classic;html=1;rounded=0;fontSize=18;" edge="1" parent="1">
          <mxGeometry width="50" height="50" relative="1" as="geometry">
            <mxPoint x="-140" y="90" as="sourcePoint" />
            <mxPoint x="430" y="90" as="targetPoint" />
          </mxGeometry>
        </mxCell>
        <mxCell id="OnO2KZw0QtRSp7MpEYTN-211" value="NO" style="text;html=1;align=center;verticalAlign=middle;resizable=0;points=[];autosize=1;strokeColor=none;fillColor=none;fontSize=18;" vertex="1" parent="1">
          <mxGeometry x="250" y="155" width="40" height="30" as="geometry" />
        </mxCell>
        <mxCell id="OnO2KZw0QtRSp7MpEYTN-212" value="NO" style="text;html=1;align=center;verticalAlign=middle;resizable=0;points=[];autosize=1;strokeColor=none;fillColor=none;fontSize=18;" vertex="1" parent="1">
          <mxGeometry x="60" y="265" width="40" height="30" as="geometry" />
        </mxCell>
      </root>
    </mxGraphModel>
  </diagram>
</mxfile>
